<svg xmlns="http://www.w3.org/2000/svg" width="16.702" height="19.058" viewBox="0 0 16.702 19.058">
    <path id="prefix__Icon_awesome-ribbon" fill="#d3d3d3" d="M.223 16.068a.865.865 0 0 0 .163 1.291l2.488 1.009a.873.873 0 0 0 1.132-.137l3.32-3.685-2.865-3.18-4.238 4.7zm15.76 0S5.423 4.329 5.3 4.13a5.715 5.715 0 0 1 2.8-.647 5.715 5.715 0 0 1 2.8.647c-.119.2-2.025 2.336-2.025 2.336l2.861 3.172 1.237-1.374a3.538 3.538 0 0 0 .412-4.177l-1.58-2.658A2.051 2.051 0 0 0 11.2.778a6.568 6.568 0 0 0-6.2 0 2.051 2.051 0 0 0-.608.651L2.819 4.076a3.568 3.568 0 0 0 .416 4.195l8.972 9.956a.869.869 0 0 0 1.132.137l2.488-1.009a.859.859 0 0 0 .156-1.287z" data-name="Icon awesome-ribbon" transform="translate(.247 .25)" style="fill:none;stroke:#9A9AB3;stroke-width:1.5px"/>
</svg>
