<svg xmlns="http://www.w3.org/2000/svg" width="17.7" height="16.08" viewBox="0 0 17.7 16.08">
    <defs>
        <style>
            .prefix__cls-2{fill:none;stroke:#d3d3d3;stroke-linecap:round;stroke-linejoin:round;stroke-width:2px}
        </style>
    </defs>
    <g id="prefix__Icon_feather-briefcase" data-name="Icon feather-briefcase" transform="translate(-2.25 -3.75)" style="opacity:.6">
        <path id="prefix__Path_4" d="M4.62 10.5h12.96a1.62 1.62 0 0 1 1.62 1.62v8.1a1.62 1.62 0 0 1-1.62 1.62H4.62A1.62 1.62 0 0 1 3 20.22v-8.1a1.62 1.62 0 0 1 1.62-1.62z" class="prefix__cls-2" data-name="Path 4" transform="translate(0 -2.76)"/>
        <path id="prefix__Path_5" d="M18.48 19.08V6.12a1.62 1.62 0 0 0-1.62-1.62h-3.24A1.62 1.62 0 0 0 12 6.12v12.96" class="prefix__cls-2" data-name="Path 5" transform="translate(-4.14)"/>
    </g>
</svg>
